<svg  xmlns="http://www.w3.org/2000/svg" xmlns:xlink="http://www.w3.org/1999/xlink" viewBox="0 0 148.41 148.42"><defs><style>.cls-1{fill:#5cc4e4;}.cls-2{fill:#269e48;}.cls-3{fill:#33b45b;}.cls-4{opacity:0.3;fill:url(#radial-gradient);}.cls-5{fill:#42c165;}</style><radialGradient id="radial-gradient" cx="689.72" cy="526.14" fx="615.5248925242083" r="74.2" gradientTransform="translate(-624.93 -439.36) rotate(-1.04)" gradientUnits="userSpaceOnUse"><stop offset="0" stop-color="#fff" stop-opacity="0.2"/><stop offset="0.51" stop-color="#f6f6f6" stop-opacity="0.23"/><stop offset="0.7" stop-color="#d4d4d4" stop-opacity="0.34"/><stop offset="0.83" stop-color="#999" stop-opacity="0.52"/><stop offset="0.94" stop-color="#454545" stop-opacity="0.78"/><stop offset="1"/></radialGradient></defs><g id="Layer_2" data-name="Layer 2"><g id="Layer_1-2" data-name="Layer 1"><circle class="cls-1" cx="74.2" cy="74.2" r="74.2"/><path class="cls-2" d="M110.46,107.78l0,0,0,0,0,0,0,0,0,0,0,0s0,0,0,0,0,0,0,0l0,0s0,0,0,0,0,0,0,0,0,0,0,0,0,0,0,0l0,0,0,0,0,0,0,0,0,0,0,0,0,0,0,0,0,0,0,0,0,0,0,0,0,0,0,0,0,0,0,0,0,0,0,0,0,0,0,0,0,0,0,0,0,0,0,0,0,0,0,0,0,0s0,0,0,0,0,0,0,0l0,0s0,0,0,0,0,0,0,0,0,0,0,0l0,0,0,0,0,0,0,0,0,0,0,0,0,0,0,0,0,0,0,0,0,0,0,0,0,0,0,0,0,0,0,0,0,0,0,0,0,0,0,0,0,0,0,0,0,0,0,0,0,0,0,0s0,0,0,0,0,0,0,0,0,0,0,0,0,0,0,0l0,0,0,0,0,0,0,0,0,0,0,0,0,0,0,0,0,0,0,0,0,0,0,0,0,0,0,0,0,0,0,0,0,0,0,0,0,0,0,0,0,0,0,0,0,0,0,0c-3.73-3.24-10.18.19-21.35-3.64C76.06,97.71,77.05,93.45,67,90.24c-7.62-2.43-13.86-1.82-17.38-2.51.29-1.92,3-3.74,4.11-8.44,1.93-8.4-3.92-15.2-2.08-16.58C53.81,61.05,62.24,71,65.36,69c1.79-1.13-.27-4.84.42-9.5,1.7-11.4,17.57-12.87,18.61-21.11.34-2.7-1.07-4.88-3.2-7l0,0,0,0,0,0,0,0,0,0,0,0,0,0,0,0,0,0,0,0,0,0,0,0,0,0,0,0,0,0,0,0,0,0,0,0,0,0,0,0,0,0,0,0,0,0,0,0,0,0,0,0,0,0,0,0,0,0,0,0,0,0,0,0,0,0,0,0,0,0,0,0,0,0,0,0,0,0,0,0,0,0,0,0,0,0,0,0,0,0,0,0,0,0,0,0,0,0,0,0,0,0,0,0,0,0,0,0,0,0,0,0,0,0,0,0,0,0,0,0,0,0,0,0,0,0,0,0,0,0,0,0,0,0,0,0,0,0,0,0,0,0,0,0,0,0,0,0,0,0,0,0,0,0,0,0,0,0,0,0,0,0,0,0,0,0,0,0,0,0,0,0,0,0,0,0,0,0,0,0,0,0,0,0,0,0,0,0,0,0,0,0,0,0,0,0,0,0,0,0c-2.11-2.06-5-4-7.51-6.27A13.53,13.53,0,0,1,67.35,15c-.51-4.26,1.3-8.22,3.93-11.69h0a.08.08,0,0,1,0,0h0l0,0h0l0,0h0s0,0,0,0h0l0,0h0l0,0h0s0,0,0,0h0l0,0H71l0,0H71l0,0h0l0,0h0l0,0h0s0,0,0,0h0l0,0h-.06l0,0h-.06l0,0h-.06l0,0h-.06l0,0h-.06l0,0h-.06l0,0h-.06l0,0H70.6l0,0h-.06l0,0h-.06l0,0h-.06l0,0h-.06l0,0h-.06l0,0h-.06l0,0h-.06l0,0h-.06l0,0h0l0,0h0l0,0h0l0,0h0l0,0h0l0,0h0s0,0,0,0h0l0,0h-.05l0,0H70.1l0,0h-.05l0,0h0l0,0h0l0,0h0l0,0h0l0,0h0s0,0,0,0h0s0,0,0,0h0l0,0h0l0,0H69.8l0,0h-.06l0,0h-.06l0,0h-.06l0,0h-.06l0,0h-.06l0,0h-.06l0,0h-.06l0,0h-.06l0,0h-.06l0,0H69.5l0,0h-.06l0,0h-.06l0,0h-.06l0,0h-.06l0,0h-.06l0,0h0a.08.08,0,0,1,0,0h0l0,0h0a.08.08,0,0,1,0,0h-.05a.08.08,0,0,1,0,0h-.05l0,0h0s0,0,0,0h0l0,0h0l0,0h0l0,0h0l0,0h0l0,0h0l0,0h0l0,0h0l0,0h0l0,0h-.05l0,0h-.05l0,0h-.06l0,0h-.06l0,0h-.06l0,0h-.06l0,0H68.7l0,0h-.06l0,0h-.06l0,0h-.06l0,0h-.06l0,0h-.06l0,0h-.06l0,0h-.06l0,0h-.06l0,0h-.06l0,0H68.4l0,0h-.06l0,0h-.05l0,0h-.05a.08.08,0,0,1,0,0h0l0,0h0l0,0a73.82,73.82,0,0,0-28.09,8l-.13.07c-.76.39-1.51.8-2.25,1.21l0,0c-2.2,1.24-4.33,2.6-6.39,4l-.37.27a72.58,72.58,0,0,0-5.84,4.65l-.11.09c-.59.52-1.16,1.05-1.74,1.59l-.37.36Q20.37,23,18,25.76l-.31.36c-.5.58-1,1.17-1.47,1.77l-.28.36Q13.76,31,11.83,34c-.13.18-.25.37-.37.56-.4.63-.79,1.27-1.17,1.91-.06.11-.13.22-.19.34C9.36,38.12,8.65,39.42,8,40.74l-.27.53c-.31.62-.6,1.25-.89,1.87l-.42.91c-.27.62-.54,1.24-.8,1.86-.09.21-.16.41-.24.61-.25.63-.51,1.25-.74,1.88l0,0h0l0,0h0l0,0h0l0,0h0l0,0h0l0,0h0l0,0h0l0,0h0l0,0h0l0,0h0l0,0H5l0,0H5l0,0H5l0,0H5l0,0h0l0,0h0v0h0v0h0v0h0v0h0v0h0v0h0v0h0v0h0v0h0v0h0v0h0v0h0v0h0v0h0v0h0v0h0v0h0l0,0h0l0,0h0l0,0h0l0,0h0l0,0h0l0,0h0l0,0h0l0,0h0l0,0h0l0,0h0l0,0H6l0,0H6l0,0H6l0,0h0l0,0h0l0,0h0v0h0v0h0v0h0v0h0v0h0v0h0v0h0v0h0v0h0v0h0v0h0v0h0v0h0v0h0v0h0v0h0v0h0l0,0h0l0,0h0l0,0h0l0,0h0l0,0h0l0,0h0l0,0h0l0,0h0l0,0h0l0,0h0l0,0H7l0,0H7l0,0H7l0,0h0l0,0h0v0h0v0h0v0h0v0h0v0h0v0h0v0h0v0h0v0h0v0h0v0h0v0h0v0h0v0h0v0h0v0h0v0h0a152.15,152.15,0,0,1,19,9.39,90.12,90.12,0,0,1,13.07,8.7,8.2,8.2,0,0,1,2,4.59c.56,6-5.36,7.85-8.61,16.18-3.76,9.62.91,15.42,3.52,30.79a87.21,87.21,0,0,1,1.25,17.87A74.19,74.19,0,0,0,101,143.41a132.89,132.89,0,0,0,7-14.07c3.13-7,7-16.11,3.19-20.82A6.33,6.33,0,0,0,110.46,107.78Z"/><path class="cls-3" d="M86.14,101.17C76.06,97.71,77.05,93.45,67,90.24c-10.8-3.44-18.86-.77-20.25-4.38-1-2.47,2.69-4,4-9.57,1.93-8.4-3.92-15.2-2.08-16.58C50.81,58.05,59.24,68,62.36,66c1.79-1.13-.27-4.84.42-9.5,1.7-11.4,17.57-12.87,18.61-21.11,1.09-8.63-15.68-12-17-23.43-.51-4.26,1.3-8.22,3.93-11.69A74.22,74.22,0,0,0,4.62,48.4a152.15,152.15,0,0,1,19,9.39C39,66.65,41.41,70.66,41.74,74.08c.56,6-5.36,7.85-8.61,16.18-3.76,9.62.91,15.42,3.52,30.79a87.39,87.39,0,0,1,1.25,17.89,74.25,74.25,0,0,0,56.79,6.6,111.36,111.36,0,0,0,10.3-19.2c3.13-7,7-16.11,3.19-20.82C104.57,101.1,98,105.24,86.14,101.17Z"/><path class="cls-3" d="M135.58,32.46a36.34,36.34,0,0,0-9.37,4.67A35.58,35.58,0,0,0,115.07,53a30.17,30.17,0,0,0-1.69,14.39,35,35,0,0,0,11.13,20.35c2.94,2.61,5,3.47,6,6.42,1.31,3.94-.82,7.17-2.07,11.46-1.21,4.09-1.9,10.14.56,18.52a74.11,74.11,0,0,0,6.59-91.67Z"/><circle class="cls-4" cx="74.2" cy="74.2" r="74.2"/><path class="cls-5" d="M131.43,105.61c1.25-4.29,3.38-7.52,2.07-11.46-1-3-3.05-3.81-6-6.42a35,35,0,0,1-11.13-20.35A30.17,30.17,0,0,1,118.07,53a35.58,35.58,0,0,1,11.14-15.86,38.7,38.7,0,0,1,6.95-3.79c-.19-.29-.38-.59-.58-.88a36.34,36.34,0,0,0-9.37,4.67A35.58,35.58,0,0,0,115.07,53a30.17,30.17,0,0,0-1.69,14.39,35,35,0,0,0,11.13,20.35c2.94,2.61,5,3.47,6,6.42,1.31,3.94-.82,7.17-2.07,11.46-1.21,4.09-1.9,10.14.56,18.52.79-.86,1.56-1.75,2.31-2.65A30.76,30.76,0,0,1,131.43,105.61Z"/><path class="cls-5" d="M40.9,138.94a87.39,87.39,0,0,0-1.25-17.89C37,105.68,32.37,99.88,36.13,90.26c3.25-8.33,9.17-10.2,8.61-16.18-.33-3.42-2.71-7.43-18.1-16.29a152.15,152.15,0,0,0-19-9.39A74.24,74.24,0,0,1,68,.6l.24-.34A74.22,74.22,0,0,0,4.62,48.4a152.15,152.15,0,0,1,19,9.39C39,66.65,41.41,70.66,41.74,74.08c.56,6-5.36,7.85-8.61,16.18-3.76,9.62.91,15.42,3.52,30.79a87.39,87.39,0,0,1,1.25,17.89,73.85,73.85,0,0,0,37.63,9.47h.17A73.74,73.74,0,0,1,40.9,138.94Z"/><path class="cls-5" d="M51.6,59.71a.89.89,0,0,0-.32.58c3.45,2,8.75,7.17,11.08,5.7a1.59,1.59,0,0,0,.24-.2C58.79,64.1,53.31,58.42,51.6,59.71Z"/></g></g></svg>